<svg xmlns="http://www.w3.org/2000/svg" width="568.8" height="60.4" viewBox="0 0 568.8 60.4">
  <defs>
    <style>
      .a {
        fill: #fff;
      }
    </style>
  </defs>
  <title>WOE_logo_horizontal_white</title>
  <g>
    <g>
      <path class="a" d="M170.1,70l6.1-18.6h3.6l-8.1,23.3h-3l-6.2-18.3-6.3,18.3h-3L145,51.4h3.7L154.7,70,161,51.3h2.9Z" transform="translate(-23.9 -32.2)"/>
      <path class="a" d="M187.5,74.5h-3.4V41.9h3.4V55.4a8.8,8.8,0,0,1,7.9-4.5c5.6,0,8.9,3.8,8.9,9.3V74.5h-3.4V61c0-4.3-2.3-7-6.4-7s-6.9,2.9-6.9,7.2Z" transform="translate(-23.9 -32.2)"/>
      <path class="a" d="M210.6,46.3V42.5h3.9v3.8Zm.2,28.2V51.4h3.4V74.5Z" transform="translate(-23.9 -32.2)"/>
      <path class="a" d="M225.3,68c0,2.8,1.6,3.8,3.9,3.8a7.2,7.2,0,0,0,3.4-.8v3a8.7,8.7,0,0,1-4.2,1c-3.7,0-6.5-1.8-6.5-6.5v-14h-3.2v-3h3.2v-7h3.4v7h7.3v3h-7.3Z" transform="translate(-23.9 -32.2)"/>
      <path class="a" d="M246.7,72.1a9.6,9.6,0,0,0,7.3-3.3l2.1,1.9a11.9,11.9,0,0,1-9.5,4.3c-6.4,0-11.5-4.9-11.5-12.1s4.7-12.1,11.1-12.1S257,56.4,257,63.2a9.4,9.4,0,0,1,0,1.1H238.6C239.1,69.3,242.7,72.1,246.7,72.1Zm6.8-10.4c-.4-4.2-2.8-7.9-7.4-7.9s-7.1,3.4-7.5,7.9Z" transform="translate(-23.9 -32.2)"/>
      <path class="a" d="M287,75.1a11.9,11.9,0,0,1-12-12,12.1,12.1,0,1,1,12,12Zm0-21.1c-5,0-8.5,4-8.5,9s3.7,9,8.5,9,8.5-4,8.5-8.9S291.9,53.9,287,53.9Z" transform="translate(-23.9 -32.2)"/>
      <path class="a" d="M314.9,75.1a12.1,12.1,0,1,1,9.3-20l-2.3,2.4c-1.8-1.9-3.9-3.5-7-3.5-4.7,0-8.3,4-8.3,9s3.7,9,8.5,9a9.5,9.5,0,0,0,7.1-3.4l2.2,2.1A11.9,11.9,0,0,1,314.9,75.1Z" transform="translate(-23.9 -32.2)"/>
      <path class="a" d="M334.2,68c0,2.8,1.6,3.8,3.9,3.8a7.2,7.2,0,0,0,3.4-.8v3a8.7,8.7,0,0,1-4.2,1c-3.7,0-6.5-1.8-6.5-6.5v-14h-3.2v-3h3.2v-7h3.4v7h7.3v3h-7.3Z" transform="translate(-23.9 -32.2)"/>
      <path class="a" d="M355.8,75.1a11.9,11.9,0,0,1-12-12,12.1,12.1,0,1,1,12,12Zm0-21.1c-5,0-8.5,4-8.5,9s3.7,9,8.5,9,8.5-4,8.5-8.9S360.7,53.9,355.8,53.9Z" transform="translate(-23.9 -32.2)"/>
      <path class="a" d="M385.5,75a10.4,10.4,0,0,1-8.9-4.9v4.4h-3.4V41.9h3.4V56.1c1.9-2.8,4.6-5.1,8.9-5.1s11.1,4.4,11.1,12S391.1,75,385.5,75Zm-.6-21a8.6,8.6,0,0,0-8.4,8.9,8.6,8.6,0,0,0,8.4,9c4.5,0,8.1-3.3,8.1-8.9S389.3,54,384.9,54Z" transform="translate(-23.9 -32.2)"/>
      <path class="a" d="M412.3,72.1a9.6,9.6,0,0,0,7.3-3.3l2.1,1.9a11.9,11.9,0,0,1-9.5,4.3c-6.4,0-11.5-4.9-11.5-12.1s4.7-12.1,11.1-12.1,10.8,5.5,10.8,12.3a9.4,9.4,0,0,1,0,1.1H404.1C404.6,69.3,408.2,72.1,412.3,72.1ZM419,61.7c-.4-4.2-2.8-7.9-7.4-7.9s-7.1,3.4-7.5,7.9Z" transform="translate(-23.9 -32.2)"/>
      <path class="a" d="M431.2,74.5h-3.4V51.4h3.4v6c1.7-3.8,5.1-6.6,9.4-6.4v3.7h-.3c-5.1,0-9.2,3.6-9.2,10.6Z" transform="translate(-23.9 -32.2)"/>
      <path class="a" d="M469.5,72.1a9.6,9.6,0,0,0,7.3-3.3l2.1,1.9a11.9,11.9,0,0,1-9.5,4.3c-6.4,0-11.5-4.9-11.5-12.1s4.7-12.1,11.1-12.1,10.8,5.5,10.8,12.3a9.4,9.4,0,0,1,0,1.1H461.4C461.9,69.3,465.5,72.1,469.5,72.1Zm6.8-10.4c-.4-4.2-2.8-7.9-7.4-7.9s-7.1,3.4-7.5,7.9Z" transform="translate(-23.9 -32.2)"/>
      <path class="a" d="M500.8,51.4h3.7L494.4,74.7h-3l-10-23.3h3.8L493,70.6Z" transform="translate(-23.9 -32.2)"/>
      <path class="a" d="M517.8,72.1a9.6,9.6,0,0,0,7.3-3.3l2.1,1.9a11.9,11.9,0,0,1-9.5,4.3c-6.4,0-11.5-4.9-11.5-12.1s4.7-12.1,11.1-12.1S528,56.4,528,63.2a9.4,9.4,0,0,1,0,1.1H509.6C510.1,69.3,513.7,72.1,517.8,72.1Zm6.8-10.4c-.4-4.2-2.8-7.9-7.4-7.9s-7.1,3.4-7.5,7.9Z" transform="translate(-23.9 -32.2)"/>
      <path class="a" d="M536.7,74.5h-3.4V51.4h3.4v4a8.8,8.8,0,0,1,7.9-4.5c5.6,0,8.9,3.8,8.9,9.3V74.5H550V61c0-4.3-2.3-7-6.4-7s-6.9,2.9-6.9,7.2Z" transform="translate(-23.9 -32.2)"/>
      <path class="a" d="M564,68c0,2.8,1.6,3.8,3.9,3.8a7.2,7.2,0,0,0,3.4-.8v3a8.7,8.7,0,0,1-4.2,1c-3.7,0-6.5-1.8-6.5-6.5v-14h-3.2v-3h3.2v-7H564v7h7.3v3H564Z" transform="translate(-23.9 -32.2)"/>
      <path class="a" d="M584.4,75a15.9,15.9,0,0,1-9.6-3.4l1.7-2.5a13.5,13.5,0,0,0,8,3c2.8,0,4.8-1.4,4.8-3.7h0c0-2.3-2.7-3.2-5.8-4.1s-7.7-2.3-7.7-6.5h0c0-4,3.3-6.6,7.9-6.6a15.8,15.8,0,0,1,8.3,2.6l-1.6,2.6a13.1,13.1,0,0,0-6.8-2.2c-2.7,0-4.5,1.4-4.5,3.4h0c0,2.2,2.9,3,6,4s7.4,2.5,7.4,6.6h0C592.6,72.4,589,75,584.4,75Z" transform="translate(-23.9 -32.2)"/>
    </g>
    <path class="a" d="M125.2,32.7a1,1,0,0,0-.9-.5H24.9a1,1,0,0,0-.9,1.5L57.7,92.1a1,1,0,0,0,.9.5h0a1,1,0,0,0,.9-.5L74.6,65.9,89.7,92.1a1,1,0,0,0,1.8,0l33.7-58.4A1,1,0,0,0,125.2,32.7Zm-9.4,10.5L90.6,86.9,83.3,74.3Zm3.2-7.7L81.6,71.3l-5-8.7,15.6-27Zm-58,0H87L70.2,51.6ZM69.4,57l3.2,5.6L58.6,86.9,51.3,74.3Zm-1.7-3L49.6,71.3,28.9,35.5H57ZM83.8,43.2l-9.2,16-2.7-4.6Z" transform="translate(-23.9 -32.2)"/>
  </g>
</svg>
